<?xml version="1.0" encoding="iso-8859-1"?>
<!-- Generator: Adobe Illustrator 19.0.0, SVG Export Plug-In . SVG Version: 6.00 Build 0)  -->
<svg version="1.1" id="Capa_1" xmlns="http://www.w3.org/2000/svg" xmlns:xlink="http://www.w3.org/1999/xlink" x="0px" y="0px"
	 viewBox="0 0 512.002 512.002" style="enable-background:new 0 0 512.002 512.002;" xml:space="preserve">
<path style="fill:#AA563C;" d="M303.925,358.449c-0.58-12.831,19.284-15.045,15.471-14.373c-0.007,0.001-0.015,0.002-0.022,0.003
	c-60.373-123.577-218.935-197.014-230.51-198.124c-7.975,18.411-11.969,39.294-6.366,60.843
	c17.372,66.815-48.107,33.408-48.107,48.107L49.09,285.64l-4.9,19.154l11.581,8.908l-7.127,12.472c0,0,20.49,12.472,11.581,32.071
	s8.463,36.526,26.949,29.399s82.628-23.162,103.118,45.434c0,0,7.058,21.325-2.822,49.269l0.017-0.007
	c0,0-8.633,24.02,16.278,28.084h0.001c8.965,0.43,58.897,7.8,107.245-14.911c1.291-0.764,17.684-10.917,10.012-29.339
	C293.229,408.306,303.925,358.449,303.925,358.449z"/>
<path style="fill:#A04B33;" d="M84.293,214.927h1.063c-1.43-16.728,2.362-32.807,8.658-47.342c0,0,0.036,0.016,0.063,0.028
	c-0.026-0.012-0.063-0.028-0.063-0.028l0,0c2.326-5.37,4.993-10.526,7.858-15.429c-3.68-1.836-9.276-4.555-13.007-6.201
	C73.416,181.619,82.138,202.904,84.293,214.927z"/>
<path style="fill:#F6B138;" d="M268.527,322.642c-0.013-0.019-5.97-8.835-9.838,4.011l0,0c-1.993,15.747-12.466,27.76-25.092,27.76
	c-12.532,0-22.94-11.835-25.044-27.408l0,0l0,0c-0.205-1.516-0.331-3.066-0.373-4.646c-1.792-9.22-9.514,0.284-9.514,0.284l0,0
	c-4.162,6.466-6.591,14.152-6.591,22.414c0,22.932,18.59,41.522,41.522,41.522C266.737,386.578,286.033,349.838,268.527,322.642z"/>
<path style="fill:#EDA024;" d="M217.887,347.316c-4.813-4.945-8.227-12.108-9.335-20.311l0,0c-0.205-1.516-0.331-3.066-0.373-4.646
	c-1.792-9.22-9.514,0.284-9.514,0.284c-4.162,6.466-6.591,14.152-6.591,22.414c0,28.302,27.66,48.192,54.397,39.477
	C230.528,379.336,218.823,364.76,217.887,347.316z"/>
<path style="fill:#FC5959;" d="M132.922,85.774c-10.944,10.278-32.03,32.411-44.058,60.18l0,0c0,0,158.7,69.481,230.51,198.125
	c17.213-2.116,44.992-9.081,70.666-31.083C315.144,184.24,170.709,104.913,132.922,85.774z"/>
<path style="fill:#EF4343;" d="M101.871,152.155c14.261-24.412,30.725-39.865,49.266-56.738c-7.434-4.089-13.619-7.315-18.215-9.643
	c-10.944,10.278-32.03,32.411-44.058,60.18l0,0C88.864,145.955,93.629,148.042,101.871,152.155z"/>
<path style="fill:#6D5248;" d="M459.108,137.497c43.627-54.586,5.484-137.382-66.13-137.382c-18.984,0-34.367,5.311-48.209,15.088
	c-15.055,7.851-32.431,4.574-32.431,4.574l0.002,0.009c-35.889-2.498-75.403,3.433-111.089,18.828
	c51.576,28.255,166.525,99.845,233.81,207.992c-2.924,7.312-6.262,14.538-10.039,21.626c17.198-32.206,25.492-67.21,25.107-100.665
	c0.925-21.376,8.992-30.053,8.992-30.053L459.108,137.497z"/>
<path style="fill:#60433A;" d="M239.452,25.995L239.452,25.995c-12.986,3.106-25.826,7.28-38.202,12.619
	c7.146,3.915,15.513,8.665,24.798,14.226c30.181-9.847,62.027-13.472,91.441-11.425l-0.002-0.009c0,0,17.376,3.278,32.431-4.574
	c44.266-31.269,107.527-12.243,127.258,39.309c-6.508-64.538-80.636-97.511-132.408-60.939c-15.055,7.851-32.431,4.574-32.431,4.574
	l0.002,0.009C289.314,18.184,264.139,20.091,239.452,25.995z"/>
<path style="fill:#E83D3D;" d="M435.06,246.607C367.775,138.459,252.826,66.869,201.25,38.614
	c-30.384,13.108-47.197,27.316-68.328,47.16c37.788,19.139,182.223,98.466,257.118,227.221c-4.874,4.177-9.824,7.81-14.764,10.973
	c0.002,0.004,0.005,0.007,0.007,0.011C403.951,305.628,422.361,278.361,435.06,246.607z"/>
<path style="fill:#BC3B3B;" d="M201.25,38.614c-30.384,13.108-47.197,27.316-68.328,47.16c4.596,2.328,10.781,5.553,18.215,9.643
	c16.322-14.854,35.185-26.511,55.263-35.173c0.629,0.345,0.626,0.343,0,0c6.438-2.778,13.004-5.236,19.648-7.403
	C217.5,47.721,209.301,43.028,201.25,38.614z"/>
<path style="fill:#A04B33;" d="M230.727,510.359L230.727,510.359c-24.912-4.232-16.279-29.243-16.279-29.243l-0.017,0.008
	c9.88-29.098,2.822-51.303,2.822-51.303c-19.154-66.77-76.448-56.534-98.939-48.854c25.884-1.577,58.448,6.813,71.979,52.111
	c0,0,7.058,21.325-2.822,49.269l0.017-0.007c0,0-8.633,24.02,16.278,28.084h0.001c5.933,0.488,19.426,2.417,40.615,1.16
	C237.523,511.176,233.389,510.643,230.727,510.359z"/>
<g>
</g>
<g>
</g>
<g>
</g>
<g>
</g>
<g>
</g>
<g>
</g>
<g>
</g>
<g>
</g>
<g>
</g>
<g>
</g>
<g>
</g>
<g>
</g>
<g>
</g>
<g>
</g>
<g>
</g>
</svg>
