<?xml version="1.0" encoding="iso-8859-1"?>
<!-- Generator: Adobe Illustrator 19.0.0, SVG Export Plug-In . SVG Version: 6.00 Build 0)  -->
<svg version="1.1" id="Capa_1" xmlns="http://www.w3.org/2000/svg" xmlns:xlink="http://www.w3.org/1999/xlink" x="0px" y="0px"
	 viewBox="0 0 512 512" style="enable-background:new 0 0 512 512;" xml:space="preserve">
<ellipse style="fill:#5E423A;" cx="256.01" cy="144.265" rx="255.86" ry="43.15"/>
<path style="fill:#51362E;" d="M500.281,131.399c-32.47,17.542-129.553,30.274-244.274,30.274S44.203,148.941,11.733,131.399
	c-51.099,27.606,70.996,56.016,244.274,56.016C429.167,187.415,551.359,158.993,500.281,131.399z"/>
<path style="fill:#F2D59F;" d="M256.007,187.415c-138.221,0-250.823-18.483-255.673-41.592
	c-5.128,145.022,110.849,265.062,255.673,265.062c144.521,0,260.808-119.724,255.673-265.063
	C506.83,168.931,394.229,187.415,256.007,187.415z"/>
<path style="fill:#EDBF77;" d="M29.933,164.479c-17.637-5.6-28.188-11.931-29.599-18.656
	c-5.34,151.054,120.055,273.204,270.468,264.627C139.504,402.961,34.728,296.48,29.933,164.479z"/>
<path style="fill:#F6B138;" d="M511.681,145.822c-4.85,23.109-117.452,41.592-255.673,41.592S5.184,168.931,0.334,145.822
	C-0.606,172.4,2.52,197.88,8.977,221.82c0.006,0.004,0.013,0.008,0.019,0.011c3.923,14.526,9.07,28.549,15.362,41.931
	c92.115,33.053,371.242,33.031,463.297,0c6.292-13.382,11.44-27.405,15.362-41.931c0.006-0.004,0.013-0.008,0.019-0.011
	C509.489,197.888,512.626,172.593,511.681,145.822z"/>
<path style="fill:#EDA024;" d="M8.977,221.82c0.006,0.004,0.013,0.008,0.019,0.011c3.923,14.526,9.07,28.549,15.362,41.931
	c9.12,3.272,20.61,6.319,34.089,9.079c-16.96-32.636-27.099-69.386-28.515-108.364c-8.944-2.84-27.671-9.469-29.599-18.656
	C-0.582,171.733,2.37,197.326,8.977,221.82z"/>
<path style="fill:#E83D3D;" d="M487.656,263.763c6.292-13.382,11.44-27.405,15.362-41.931c0.006-0.004,0.013-0.008,0.019-0.011
	c3.223-11.954,5.918-25.823,7.267-38.529c-14.043,21.59-122.528,38.388-254.297,38.388S15.753,204.881,1.71,183.291
	c1.256,11.828,3.73,25.418,7.267,38.529c0.006,0.004,0.013,0.008,0.019,0.011c3.923,14.526,9.07,28.549,15.362,41.931
	C116.474,296.816,395.601,296.794,487.656,263.763z"/>
<path style="fill:#BC3B3B;" d="M33.693,199.895c-16.909-4.994-28.081-10.612-31.98-16.6c1.428,12.996,3.857,25.894,7.264,38.525
	c0.006,0.004,0.013,0.008,0.019,0.011c3.923,14.526,9.07,28.549,15.362,41.931c9.12,3.272,20.61,6.319,34.089,9.079
	C46.725,250.285,38.268,225.761,33.693,199.895z"/>
<path style="fill:#F2902F;" d="M491.037,256.216l-41.001-49.563c-5.369,1.053-11.033,2.061-16.972,3.021l-34.439,58.561
	l-38.116-50.309c-5.601,0.423-11.308,0.813-17.114,1.169l-35.56,56.112l-41.993-53.563c-7.211,0.046-12.54,0.045-19.5,0.001
	l-41.992,53.562l-35.553-56.102c-5.81-0.355-11.524-0.744-17.13-1.167l-38.106,50.296l-34.42-58.53
	c-5.954-0.961-11.632-1.97-17.014-3.024l-41.091,49.672c1.073,2.488,2.172,4.963,3.322,7.41c2.589,0.929,5.371,1.84,8.333,2.731
	l36.197-43.756l33.647,57.217c6.375,0.807,12.986,1.565,19.804,2.271l37.122-48.998l34.26,54.061
	c6.644,0.28,13.388,0.518,20.227,0.709l42.144-53.757l42.14,53.752c6.842-0.192,13.589-0.431,20.236-0.712l34.255-54.054
	l37.109,48.981c6.828-0.708,13.447-1.468,19.83-2.278l33.634-57.193l36.163,43.715c2.911-0.878,5.645-1.775,8.194-2.69
	C488.827,261.272,489.945,258.751,491.037,256.216z"/>
<g>
</g>
<g>
</g>
<g>
</g>
<g>
</g>
<g>
</g>
<g>
</g>
<g>
</g>
<g>
</g>
<g>
</g>
<g>
</g>
<g>
</g>
<g>
</g>
<g>
</g>
<g>
</g>
<g>
</g>
</svg>
